inDegrees=no
num_controls=7
num_derivatives=13
num_iterations=226
num_multipliers=7
num_parameters=0
num_slacks=7
num_states=26
objective=6.073803
objective_accelerations=0.633198
objective_balance=0.047337
objective_effort=0.577062
objective_height=4.745637
objective_ligament=0.070568
solver_duration=2317.868473
status=Solve_Succeeded
success=true
DataType=double
version=3
OpenSimVersion=4.4-2022-07-23-0e9fedc
endheader
time	/jointset/ground_pelvis/pelvis_tilt/value	/jointset/ground_pelvis/pelvis_tx/value	/jointset/ground_pelvis/pelvis_ty/value	/jointset/hip_l/hip_flexion_l/value	/jointset/hip_l/hip_adduction_l/value	/jointset/hip_l/hip_rotation_l/value	/jointset/back/lumbar_extension/value	/jointset/patellofemoral_l/patellar_flexion_l/value	/jointset/knee_l/knee_flexion_l/value	/jointset/knee_l/knee_adduction_l/value	/jointset/knee_l/knee_rotation_l/value	/jointset/ankle_l/ankle_angle_l/value	/jointset/subtalar_l/subtalar_angle_l/value	/jointset/ground_pelvis/pelvis_tilt/speed	/jointset/ground_pelvis/pelvis_tx/speed	/jointset/ground_pelvis/pelvis_ty/speed	/jointset/hip_l/hip_flexion_l/speed	/jointset/hip_l/hip_adduction_l/speed	/jointset/hip_l/hip_rotation_l/speed	/jointset/back/lumbar_extension/speed	/jointset/patellofemoral_l/patellar_flexion_l/speed	/jointset/knee_l/knee_flexion_l/speed	/jointset/knee_l/knee_adduction_l/speed	/jointset/knee_l/knee_rotation_l/speed	/jointset/ankle_l/ankle_angle_l/speed	/jointset/subtalar_l/subtalar_angle_l/speed	/forceset/tau_hip_flexion_l	/forceset/tau_hip_adduction_l	/forceset/tau_hip_rotation_l	/forceset/tau_knee_flexion_l	/forceset/tau_ankle_angle_l	/forceset/tau_subtalar_angle_l	/forceset/tau_lumbar_extension	lambda_cid13_p0	lambda_cid13_p1	lambda_cid13_p2	lambda_cid13_p3	lambda_cid13_p4	lambda_cid13_p5	lambda_cid14_p0	/jointset/ground_pelvis/pelvis_tilt/accel	/jointset/ground_pelvis/pelvis_tx/accel	/jointset/ground_pelvis/pelvis_ty/accel	/jointset/hip_l/hip_flexion_l/accel	/jointset/hip_l/hip_adduction_l/accel	/jointset/hip_l/hip_rotation_l/accel	/jointset/back/lumbar_extension/accel	/jointset/patellofemoral_l/patellar_flexion_l/accel	/jointset/knee_l/knee_flexion_l/accel	/jointset/knee_l/knee_adduction_l/accel	/jointset/knee_l/knee_rotation_l/accel	/jointset/ankle_l/ankle_angle_l/accel	/jointset/subtalar_l/subtalar_angle_l/accel	gamma_cid13_p0	gamma_cid13_p1	gamma_cid13_p2	gamma_cid13_p3	gamma_cid13_p4	gamma_cid13_p5	gamma_cid14_p0
0.5	-0.1652862858376694	-0.0740257617192947	0.7872843152068632	1.061639977906842	-0.3270730749355938	-0.07939629261156829	-0.8033501542682043	0.9228111886188632	0.9228111886187874	-0.09840362097758867	-0.1745316573986576	0.08887126703560348	-0.005076468852584603	-0.3131484347255877	-0.2172615968852779	-0.4809245050091854	1.93825773189707	-0.01965895547088667	0.5573537185281301	-0.8290621168178692	1.784463519101291	1.784463519101142	0.1675031337939753	-4.192143033727787e-06	0.2763895065529274	0.06572645620112363	-0.3217489389301154	0.01075479487806756	-0.004657318703679144	-0.226911935769058	0.1223115327534627	0.05439719352544629	0.3568439273691181	-4.942744094687916	-23.81464828578373	4.547903373075977	-13.62166297314467	-703.6479082654715	-77.63055425102422	-9.684115028478534	0.4544733242546113	0.8439474925586767	-0.1883276387095433	-1.745957580946476	0.3588973319532089	-0.5210127819897566	2.114079979994697	-1.411048197532119	-1.411048197532404	-0.1890719977216752	0.0001967652224263282	-0.1810991947138882	0.3506586593867584	-2.834718259539268e-07	-1.797564837428038e-07	1.596631938489364e-06	1.63585323797751e-07	-3.058563585156974e-07	1.925232727219646e-07	-2.451695072525202e-07
0.51	-0.1683944813335428	-0.07615613756588557	0.7824667205778113	1.080932314442649	-0.3272527159728579	-0.07384786743065357	-0.8115343905442964	0.9405825141371851	0.9405825141371787	-0.09674093565499843	-0.1745316766133111	0.09162517054340082	-0.004403062504359075	-0.3084439939883423	-0.20881186780797	-0.4824860151043587	1.919948750937332	-0.01627826945497086	0.5522687602361472	-0.8077060056530929	1.769548062692492	1.769548062692379	0.1650244518201286	-3.364305711902316e-07	0.2743337024964344	0.06892956664368551	-0.3296189570740542	0.01067633082612778	-0.004836002403974145	-0.230013541307491	0.1225629068337178	0.05453419787331074	0.3640964669328067	-5.173866242743507	-23.76735899898205	4.464607290073296	-13.55622600849188	-708.9325498206589	-77.43148965780054	-8.957928927750393	0.4854020239293265	0.8457743047233153	-0.1238607996934494	-1.912528638956254	0.3261038865972782	-0.5118427145213256	2.158246596904527	-1.569774658684097	-1.569774658678508	-0.2786904164194876	0.0006996402623990054	-0.2264407847291486	0.3011880212867735	-2.730905249489769e-07	-1.658453346424505e-07	1.559056147082672e-06	1.594119668382375e-07	-2.891505139924753e-07	2.219672094538634e-07	-2.393767655919531e-07
0.52	-0.1714542379069511	-0.07820195838382223	0.7776367512268534	1.100033729111764	-0.3273988602199259	-0.06835221290500244	-0.8195026917263039	0.9581970890321925	0.9581970890322581	-0.09510332197598587	-0.1745316133376381	0.0943567920559107	-0.003698414894788766	-0.3034606502322967	-0.2003505911544392	-0.4833994493904129	1.900073358558845	-0.01295959743159448	0.5467995874754138	-0.7858750980008925	1.753113394438482	1.753113394438407	0.1624888050781488	1.230592206070787e-05	0.2719331074954557	0.07197470847008214	-0.3374889752179932	0.01059786677418645	-0.005014686104260806	-0.2331151468459233	0.1228142809139734	0.05467120222117352	0.3713490064964954	-5.407948135779188	-23.72031986248541	4.382230112021452	-13.53178167694724	-714.2958118295533	-77.29032046175369	-8.233705702500341	0.5102539280147476	0.846257007803216	-0.05871247688574879	-2.059239864696141	0.346494533445335	-0.5978556757398279	2.209039277479569	-1.714890566574223	-1.714890566574131	-0.2004649513483035	0.001954093256304174	-0.2500573836110845	0.3190649361536913	-2.659709931949305e-07	-2.00705787241539e-07	1.497029583723761e-06	1.481641222863013e-07	-2.7774372074365e-07	2.452055964419974e-07	-2.382749666214629e-07
0.53	-0.1744628429358366	-0.08016318273993027	0.772800897752531	1.118928735422789	-0.3275121612712293	-0.06291332794893693	-0.8272504872162527	0.9756398725139833	0.9756398725140297	-0.09349120773558556	-0.1745315794420371	0.09706274341318633	-0.002964129916155037	-0.2982192375422444	-0.1918991446915087	-0.4836618931483106	1.878679779227532	-0.009712805882926423	0.5409174316672761	-0.7636233978833518	1.735202547166803	1.735202547166775	0.1599260383647184	-5.839856428999377e-06	0.2692062351030188	0.07485521620691335	-0.3449870984066469	0.01037691969121369	-0.005147079467952691	-0.2363436264976321	0.1231180031965696	0.05462794740608185	0.3782205108373519	-5.623192424854946	-23.59350057836501	4.28165899362203	-13.42064507464768	-719.4747132306577	-77.04228568668483	-7.518470621990854	0.5372262271677117	0.8438872229784371	0.006338173131125555	-2.216669847379344	0.3117695381837087	-0.5926075942746492	2.242325694781933	-1.865247481114218	-1.865247481107321	-0.2854079394949949	-0.003445173537111638	-0.2916413140762741	0.2683467348804526	-2.549666260059558e-07	-1.963351548716899e-07	1.447522537580563e-06	1.419947872152124e-07	-2.620859426853452e-07	2.692415012848327e-07	-2.32167422405595e-07
0.54	-0.1774178055802894	-0.08204003287992107	0.7679656895403043	1.137602355364494	-0.327593394792525	-0.05753510696313813	-0.834773947641848	0.9928963343883271	0.9928963343883562	-0.09190496624394986	-0.1745316762562472	0.09973989821713422	-0.002201879251666484	-0.2927321733454952	-0.183475747930992	-0.4832703969712851	1.855796084694999	-0.006546091430011262	0.5346667934221823	-0.7410080851301803	1.715849072949145	1.715849072949162	0.1573142553251047	-1.383604033877721e-05	0.2661737968299304	0.07756784564104899	-0.3524852215953014	0.01015597260823851	-0.005279472831640229	-0.2395721061493405	0.1234217254791658	0.05458469259098749	0.3850920151782082	-5.841037784566838	-23.4698404055972	4.185721401056582	-13.35727569538064	-724.7231133040149	-76.85460763504786	-6.835487632008186	0.5593842293541963	0.8406470673204131	0.07207551009886833	-2.357262904940254	0.3304791142947656	-0.6715521631310583	2.281761804605743	-2.003415955770102	-2.003415955770203	-0.2102682165849254	0.003984012172297444	-0.3111705597414733	0.2854892756145556	-2.396641430166346e-07	-1.485599178553561e-07	1.411866872186664e-06	1.414442285910186e-07	-2.417249473910204e-07	2.941597663073376e-07	-2.205216068544157e-07
0.55	-0.1803167392259067	-0.08383286470813338	0.7631376598524806	1.156039896572744	-0.3276433030916233	-0.05222117477852266	-0.8420695605708035	1.009952223548974	1.009952223548951	-0.09034495329351822	-0.1745317415438009	0.1023852874586283	-0.001413258596796363	-0.2870166534333496	-0.1751023379452304	-0.4822261000280167	1.831474071423132	-0.003452292697881748	0.5280574671022332	-0.7180700058186014	1.695099573914428	1.695099573914429	0.1546811364567647	-4.153513743031314e-06	0.262857826620803	0.08012524852894821	-0.3596926809632018	0.009839656829104475	-0.005367611183410449	-0.2427678659167429	0.1235266196344527	0.05439726328973896	0.3916249328713557	-6.118963884280222	-23.2720273394444	4.076797583341186	-13.14005561035604	-729.7618597166065	-76.56503502513506	-6.188079558860409	0.5832975935811905	0.8339581577892557	0.136976747428965	-2.505413991057149	0.2961466388771937	-0.665141322855113	2.306505220843905	-2.145051833296132	-2.14505183329857	-0.2909276392232661	-0.000993335495745246	-0.3487391659381133	0.236066744026349	-2.230557375392121e-07	-9.796331785322858e-08	1.371894597987444e-06	1.405844049555656e-07	-2.206531047482204e-07	3.153978009556507e-07	-2.075440344321105e-07
0.5600000000000001	-0.1831573853281167	-0.08554230839777119	0.7583233471262875	1.174227068957725	-0.3276628101261594	-0.04697523954839199	-0.8491344578613613	1.026793750728079	1.026793750728005	-0.08881149031522165	-0.174531800747767	0.104996131215143	-0.0006000237233175118	-0.2810746646637395	-0.1667981202160903	-0.4805270046452155	1.805722320041372	-0.0004658385175465159	0.521067402525153	-0.6948649574506196	1.672976676640766	1.672976676640751	0.1520042608978357	-1.261932310539002e-05	0.2592646998340853	0.08249068936279713	-0.3669001403311019	0.009523341049970328	-0.005455749535172587	-0.2459636256841445	0.1236315137897403	0.05420983398849043	0.3981578505645034	-6.400176403742814	-23.07725297132134	3.972487581379973	-12.96782824821401	-734.8774376246189	-76.33282300656138	-5.57682824629793	0.6046780008471825	0.826808615996086	0.2030351980054518	-2.643210526919113	0.30901020393592	-0.7476998145572796	2.335155615886324	-2.278095603559181	-2.278095603559116	-0.2190195547027166	0.0003543449806881594	-0.3666018752596271	0.247096864804481	-2.048802250760682e-07	-4.398108226814883e-08	1.326742393221836e-06	1.393534633066017e-07	-1.987282452872501e-07	3.322195591549336e-07	-1.929683537644543e-07
0.5700000000000001	-0.1859375660512684	-0.08716911718310241	0.7535292831621953	1.192149797408021	-0.3276528837291916	-0.04180099810606528	-0.8559660866208894	1.043407361702231	1.043407361702112	-0.0873048502137434	-0.1745318762512306	0.1075697703288887	0.0002360494540557176	-0.2749282500042121	-0.1585808489421034	-0.4781771295400174	1.778596087732432	0.002431761746446646	0.5137218273766423	-0.6714323545050169	1.649528084103034	1.649528084103028	0.1493157833399111	-6.298767082738445e-06	0.2554233179637236	0.08469149045799877	-0.3737236990362771	0.009103412931791876	-0.00549710071479594	-0.2491822981755688	0.1236637978769201	0.05387706927397588	0.4042821285283186	-6.696985799880972	-22.81498612503108	3.855540272492184	-12.68676741192646	-739.7279334725348	-76.0101492116796	-5.001943040932788	0.6245874795434264	0.8166323006129946	0.26722519646423	-2.781448225189664	0.2770562209104941	-0.7370076636141849	2.35157862645829	-2.410819247154135	-2.410819247152727	-0.2949583860592482	0.0004654725378966916	-0.3988669068769928	0.2015528282672096	-1.863246780868692e-07	5.12317325200877e-09	1.274833061400944e-06	1.36790619542164e-07	-1.769561319440477e-07	3.445824343677711e-07	-1.780833172344681e-07
